# xmcd
#
# Track frame offsets: 
#        150
#        13623
#        26708
#        40608
#        48263
#        61944
#        75878
#        88509
#        101880
#        114603
#        128394
#        141418
#        153331
#        165259
#        179001
#        191871
#        204507
#        216308
#        230567
#        243555
#        258316
#        272520
#        285731
#        297008
#        310461
#
# Disc length: 4269 seconds
#
# Revision: 1
# Processed by: cddbd v1.5.2PL0 Copyright (c) Steve Scherf et al.
# Submitted via: ExactAudioCopy v1.0b3
#
DISCID=6110ab19
DTITLE=Tubb, Ernest - The Texas Troubadour [Disc 4]
DYEAR=2003
DGENRE=Honky Tonk
TTITLE0=The Last Thoughts Of Jimmie Rodgers
TTITLE1=I'm Missing You
TTITLE2=Time After Time
TTITLE3=Fort Worth Jail
TTITLE4=You Were Only Teasing Me
TTITLE5=A Lonely Heart Knows
TTITLE6=You Hit The Nail Right On The Head
TTITLE7=Headin' Down The Wrong Highway
TTITLE8=Waiting For A Train
TTITLE9=When I Take My Vacation In The Sky
TTITLE10=Stand By Me
TTITLE11=The Old Rugged Cross
TTITLE12=What A Friend We Have In Jesus
TTITLE13=The Wonderful City
TTITLE14=Farther Along
TTITLE15=Texas vs Kentucky
TTITLE16=G-I-R-L Spells Trouble
TTITLE17=I'm Free From The Chain Gang Now
TTITLE18=The Lovebug Itch
TTITLE19=Kentucky Waltz
TTITLE20=I'm With The Crowd But So Alone
TTITLE21=My Mother Must Have Been A Girl Like You
TTITLE22=Somebody Loves You
TTITLE23=Don't Trifle On Your Sweetheart
TTITLE24=Merry Texas Christmas, You All!
EXTD=
EXTT0=
EXTT1=
EXTT2=
EXTT3=
EXTT4=
EXTT5=
EXTT6=
EXTT7=
EXTT8=
EXTT9=
EXTT10=
EXTT11=
EXTT12=
EXTT13=
EXTT14=
EXTT15=
EXTT16=
EXTT17=
EXTT18=
EXTT19=
EXTT20=
EXTT21=
EXTT22=
EXTT23=
EXTT24=
PLAYORDER=
